<svg version="1.1" id="Layer_1" xmlns="http://www.w3.org/2000/svg" xmlns:xlink="http://www.w3.org/1999/xlink" x="0px" y="0px"
	 width="100%" viewBox="0 0 512 512" enable-background="new 0 0 512 512" xml:space="preserve">
<path fill="#606565" opacity="1.000000" stroke="none" 
	d="
M254.000000,513.000000 
	C244.645767,513.000000 235.291550,513.000000 225.528168,512.587769 
	C222.001648,511.456818 218.917603,510.501373 215.761612,510.057129 
	C191.281418,506.611298 168.110611,498.913208 145.867584,488.361145 
	C129.444305,480.569977 114.329895,470.696014 99.859367,459.628082 
	C82.759834,446.549347 67.673164,431.466766 54.462841,414.697113 
	C39.572605,395.794922 27.461008,375.058746 18.761633,352.467865 
	C11.174481,332.765228 5.208209,312.663971 2.912597,291.584961 
	C2.812387,290.664795 1.661480,289.859039 1.000003,289.000000 
	C1.000000,267.979095 1.000000,246.958206 1.416605,225.523224 
	C2.547926,221.666367 3.412281,218.246918 3.953263,214.777069 
	C7.676884,190.893692 14.953245,168.084091 25.369568,146.346970 
	C35.299416,125.625023 47.754856,106.516846 63.086433,89.255295 
	C76.111412,74.590706 90.148766,61.133141 105.988686,49.557167 
	C124.702461,35.880947 144.840546,24.817661 166.573792,16.763098 
	C184.498459,10.120037 202.892090,5.245048 221.920273,2.925516 
	C223.008911,2.792812 223.976227,1.664794 225.000000,0.999999 
	C246.020889,1.000000 267.041779,1.000000 288.476868,1.416607 
	C289.566315,2.208954 290.205902,2.813402 290.922333,2.925044 
	C298.062469,4.037721 305.350006,4.517104 312.340149,6.223184 
	C336.877808,12.212038 360.461182,20.676548 382.608307,33.138927 
	C410.616669,48.899456 434.649475,69.384201 455.136688,93.875252 
	C472.117798,114.174957 485.616852,136.790924 495.231506,161.584915 
	C502.078156,179.240845 507.658630,197.223480 510.115570,216.091919 
	C510.511810,219.134888 512.010742,222.034256 513.000000,225.000000 
	C513.000000,235.354233 513.000000,245.708450 512.657959,256.494720 
	C510.551147,255.439056 508.666779,254.071121 507.039276,252.445923 
	C473.725830,219.179947 440.446320,185.880035 407.137939,152.608963 
	C405.502991,150.975876 403.667206,149.543869 401.954803,148.006317 
	C401.984650,147.994385 402.001587,148.056717 401.871033,147.787735 
	C401.142487,147.008942 400.544464,146.499146 399.980103,145.985779 
	C400.013794,145.982224 400.015991,146.049942 399.880859,145.832764 
	C399.481537,145.403015 399.217346,145.190460 398.988159,144.975235 
	C399.023224,144.972565 399.028442,145.042664 398.840729,144.820160 
	C398.327881,144.383545 398.002777,144.169449 397.385620,143.836716 
	C389.500458,136.043457 382.379364,127.821983 374.231812,120.789742 
	C340.604340,91.765480 301.190674,77.808838 256.488281,77.003494 
	C249.392441,77.427643 242.719254,77.545906 236.124451,78.326424 
	C212.201172,81.157799 189.719849,88.456535 168.597672,100.146500 
	C135.820557,118.286827 110.993134,144.144745 94.393402,177.535507 
	C78.054543,210.401520 72.192482,245.343506 77.060539,281.846405 
	C80.959702,311.084106 91.002007,338.084595 108.435654,361.965790 
	C115.867645,372.146362 124.371490,381.567230 132.703659,391.056366 
	C135.944748,394.747589 140.055099,397.675507 143.947052,401.166504 
	C144.423889,401.597046 144.723175,401.812195 145.021881,402.003876 
	C145.021317,401.980408 144.974609,401.975311 145.110413,402.259583 
	C145.504471,402.875336 145.762726,403.206787 146.042480,403.573364 
	C146.063995,403.608429 146.159653,403.710541 146.418884,403.990509 
	C181.115112,438.681030 215.561996,473.081726 249.957428,507.533752 
	C251.541107,509.120056 252.663025,511.167389 254.000000,513.000000 
z"/>
<path fill="#8A9697" opacity="1.000000" stroke="none" 
	d="
M254.468658,513.000000 
	C252.663025,511.167389 251.541107,509.120056 249.957428,507.533752 
	C215.561996,473.081726 181.115112,438.681030 146.868347,404.042725 
	C148.809357,404.700439 150.693024,405.393890 152.291306,406.499786 
	C183.817001,428.313690 218.942917,438.795624 257.513000,439.943085 
	C317.843994,437.471741 366.368408,413.145569 403.276306,364.893646 
	C396.129761,359.669037 389.475250,355.000763 383.057739,350.026672 
	C380.010773,347.664978 378.256378,347.938812 375.813049,351.026031 
	C345.513733,389.310608 305.313782,407.826843 256.610626,410.057251 
	C249.383621,409.341187 242.569092,408.912872 235.837509,407.921539 
	C196.002502,402.055267 163.045776,383.686005 138.207352,352.004272 
	C113.954369,321.069305 102.715988,285.733093 105.985413,246.224838 
	C108.693489,213.500092 120.476830,184.318558 142.100815,159.674973 
	C172.419754,125.122253 211.081985,107.906784 257.451599,107.011703 
	C260.685211,107.361092 263.480988,107.913002 266.283478,107.949753 
	C283.139984,108.170784 299.237946,112.225609 314.516174,118.833382 
	C363.371521,139.963150 393.405334,176.862671 404.658813,228.860489 
	C406.302124,236.453812 406.588623,244.340805 407.502991,252.091904 
	C406.954803,252.266464 406.406616,252.441025 405.858459,252.615585 
	C404.668091,251.564850 403.423248,250.569168 402.296875,249.453857 
	C397.444031,244.648743 392.718445,239.708862 387.715515,235.067032 
	C386.739655,234.161652 383.985077,233.561218 383.322144,234.180664 
	C376.777039,240.296371 370.500183,246.699203 364.760101,252.410965 
	C384.409149,272.115204 403.650391,291.410492 422.468170,310.281128 
	C441.349335,291.397400 460.615967,272.128082 480.199188,252.542175 
	C474.476379,246.786407 468.233582,240.350296 461.721619,234.199097 
	C461.061981,233.575989 458.297607,234.153015 457.331238,235.054016 
	C452.095673,239.935455 447.155273,245.131775 442.024597,250.128647 
	C440.854156,251.268585 439.333771,252.049286 438.303009,252.766663 
	C436.513458,241.318420 435.077881,230.353790 433.046082,219.500778 
	C428.572205,195.603455 418.693207,173.974991 404.868317,154.059875 
	C403.605865,152.241287 402.893005,150.041183 401.924957,148.018234 
	C403.667206,149.543869 405.502991,150.975876 407.137939,152.608963 
	C440.446320,185.880035 473.725830,219.179947 507.039276,252.445923 
	C508.666779,254.071121 510.551147,255.439056 512.657959,256.963379 
	C513.000000,267.354218 513.000000,277.708466 512.625854,288.266602 
	C511.839355,289.144104 511.177643,289.775024 511.053772,290.498077 
	C509.977692,296.779572 509.161957,303.108978 507.961609,309.365204 
	C502.691986,336.830475 492.642578,362.561005 478.537872,386.601318 
	C463.823944,411.679932 445.164734,433.562225 422.999176,452.474640 
	C408.701111,464.674255 393.306152,475.213684 376.706329,483.934509 
	C349.783173,498.078766 321.327850,507.531281 291.008514,511.051849 
	C290.273499,511.137177 289.666626,512.325867 289.000000,513.000000 
	C277.645782,513.000000 266.291534,513.000000 254.468658,513.000000 
M325.849457,224.066238 
	C325.864410,215.257263 326.015930,206.445908 325.861572,197.639908 
	C325.642059,185.119995 323.404572,173.113388 317.621033,161.748978 
	C306.702148,140.293900 280.668793,124.801292 256.056671,126.052811 
	C243.952408,125.462044 232.781738,128.737610 222.518021,134.855484 
	C202.683517,146.678207 190.842773,164.290421 188.311981,187.114258 
	C186.928970,199.586914 188.173691,212.350952 188.061813,225.394302 
	C188.061813,225.394302 187.990082,225.833588 187.072495,225.960297 
	C183.313431,225.960297 179.554352,225.960297 175.736115,225.960297 
	C175.736115,271.073944 175.736115,315.412628 175.736115,360.062408 
	C203.107712,360.062408 230.054260,360.062408 257.928345,360.209106 
	C282.723511,360.202881 307.519806,360.074188 332.312927,360.295654 
	C337.166138,360.339020 338.862000,359.331085 338.831024,354.042084 
	C338.593109,313.439270 338.704132,272.834381 338.688721,232.230164 
	C338.687988,230.284897 338.517487,228.339706 338.399689,225.834198 
	C333.943848,225.834198 329.973022,225.834198 325.924286,225.405289 
	C325.924286,225.405289 325.764130,224.999832 325.849457,224.066238 
z"/>
<path fill="#000000" opacity="1.000000" stroke="none" 
	d="
M1.000003,289.468658 
	C1.661480,289.859039 2.812387,290.664795 2.912597,291.584961 
	C5.208209,312.663971 11.174481,332.765228 18.761633,352.467865 
	C27.461008,375.058746 39.572605,395.794922 54.462841,414.697113 
	C67.673164,431.466766 82.759834,446.549347 99.859367,459.628082 
	C114.329895,470.696014 129.444305,480.569977 145.867584,488.361145 
	C168.110611,498.913208 191.281418,506.611298 215.761612,510.057129 
	C218.917603,510.501373 222.001648,511.456818 225.059509,512.587769 
	C150.406296,513.000000 75.812599,513.000000 1.000000,513.000000 
	C1.000000,438.645905 1.000000,364.291626 1.000003,289.468658 
z"/>
<path fill="#000000" opacity="1.000000" stroke="none" 
	d="
M224.531342,0.999999 
	C223.976227,1.664794 223.008911,2.792812 221.920273,2.925516 
	C202.892090,5.245048 184.498459,10.120037 166.573792,16.763098 
	C144.840546,24.817661 124.702461,35.880947 105.988686,49.557167 
	C90.148766,61.133141 76.111412,74.590706 63.086433,89.255295 
	C47.754856,106.516846 35.299416,125.625023 25.369568,146.346970 
	C14.953245,168.084091 7.676884,190.893692 3.953263,214.777069 
	C3.412281,218.246918 2.547926,221.666367 1.416605,225.054565 
	C1.000000,150.406296 1.000000,75.812576 1.000000,1.000000 
	C75.354088,1.000000 149.708389,1.000000 224.531342,0.999999 
z"/>
<path fill="#000000" opacity="1.000000" stroke="none" 
	d="
M513.000000,224.531342 
	C512.010742,222.034256 510.511810,219.134888 510.115570,216.091919 
	C507.658630,197.223480 502.078156,179.240845 495.231506,161.584915 
	C485.616852,136.790924 472.117798,114.174957 455.136688,93.875252 
	C434.649475,69.384201 410.616669,48.899456 382.608307,33.138927 
	C360.461182,20.676548 336.877808,12.212038 312.340149,6.223184 
	C305.350006,4.517104 298.062469,4.037721 290.922333,2.925044 
	C290.205902,2.813402 289.566315,2.208954 288.945526,1.416607 
	C363.593719,1.000000 438.187408,1.000000 513.000000,1.000000 
	C513.000000,75.354088 513.000000,149.708389 513.000000,224.531342 
z"/>
<path fill="#000000" opacity="1.000000" stroke="none" 
	d="
M289.468628,513.000000 
	C289.666626,512.325867 290.273499,511.137177 291.008514,511.051849 
	C321.327850,507.531281 349.783173,498.078766 376.706329,483.934509 
	C393.306152,475.213684 408.701111,464.674255 422.999176,452.474640 
	C445.164734,433.562225 463.823944,411.679932 478.537872,386.601318 
	C492.642578,362.561005 502.691986,336.830475 507.961609,309.365204 
	C509.161957,303.108978 509.977692,296.779572 511.053772,290.498077 
	C511.177643,289.775024 511.839355,289.144104 512.625854,288.735229 
	C513.000000,363.593719 513.000000,438.187408 513.000000,513.000000 
	C438.645905,513.000000 364.291626,513.000000 289.468628,513.000000 
z"/>
<path fill="#636978" opacity="1.000000" stroke="none" 
	d="
M257.061401,439.915985 
	C218.942917,438.795624 183.817001,428.313690 152.291306,406.499786 
	C150.693024,405.393890 148.809357,404.700439 146.609100,403.762756 
	C146.159653,403.710541 146.063995,403.608429 145.922455,403.277649 
	C145.512146,402.622986 145.243362,402.299164 144.974609,401.975342 
	C144.974609,401.975311 145.021317,401.980408 144.854355,401.781616 
	C144.381424,401.372284 144.075455,401.161713 143.769485,400.951141 
	C140.055099,397.675507 135.944748,394.747589 132.703659,391.056366 
	C124.371490,381.567230 115.867645,372.146362 108.435654,361.965790 
	C91.002007,338.084595 80.959702,311.084106 77.060539,281.846405 
	C72.192482,245.343506 78.054543,210.401520 94.393402,177.535507 
	C110.993134,144.144745 135.820557,118.286827 168.597672,100.146500 
	C189.719849,88.456535 212.201172,81.157799 236.124451,78.326424 
	C242.719254,77.545906 249.392441,77.427643 256.481689,77.471893 
	C256.961395,87.617577 256.989105,97.296883 257.016815,106.976181 
	C211.081985,107.906784 172.419754,125.122253 142.100815,159.674973 
	C120.476830,184.318558 108.693489,213.500092 105.985413,246.224838 
	C102.715988,285.733093 113.954369,321.069305 138.207352,352.004272 
	C163.045776,383.686005 196.002502,402.055267 235.837509,407.921539 
	C242.569092,408.912872 249.383621,409.341187 256.572998,410.518219 
	C257.011261,420.643219 257.036346,430.279602 257.061401,439.915985 
z"/>
<path fill="#414952" opacity="1.000000" stroke="none" 
	d="
M257.451599,107.011703 
	C256.989105,97.296883 256.961395,87.617577 256.940308,77.469879 
	C301.190674,77.808838 340.604340,91.765480 374.231812,120.789742 
	C382.379364,127.821983 389.500458,136.043457 397.552734,144.088959 
	C398.350739,144.654114 398.689575,144.848389 399.028442,145.042664 
	C399.028442,145.042664 399.023224,144.972565 399.052917,145.249359 
	C399.393768,145.700745 399.704865,145.875351 400.015991,146.049942 
	C400.015991,146.049942 400.013794,145.982224 399.975159,146.333237 
	C400.624878,147.141739 401.313232,147.599228 402.001587,148.056732 
	C402.001587,148.056717 401.984650,147.994385 401.954803,148.006317 
	C402.893005,150.041183 403.605865,152.241287 404.868317,154.059875 
	C418.693207,173.974991 428.572205,195.603455 433.046082,219.500778 
	C435.077881,230.353790 436.513458,241.318420 438.303009,252.766663 
	C439.333771,252.049286 440.854156,251.268585 442.024597,250.128647 
	C447.155273,245.131775 452.095673,239.935455 457.331238,235.054016 
	C458.297607,234.153015 461.061981,233.575989 461.721619,234.199097 
	C468.233582,240.350296 474.476379,246.786407 480.199188,252.542175 
	C460.615967,272.128082 441.349335,291.397400 422.468170,310.281128 
	C403.650391,291.410492 384.409149,272.115204 364.760101,252.410965 
	C370.500183,246.699203 376.777039,240.296371 383.322144,234.180664 
	C383.985077,233.561218 386.739655,234.161652 387.715515,235.067032 
	C392.718445,239.708862 397.444031,244.648743 402.296875,249.453857 
	C403.423248,250.569168 404.668091,251.564850 405.858459,252.615585 
	C406.406616,252.441025 406.954803,252.266464 407.502991,252.091904 
	C406.588623,244.340805 406.302124,236.453812 404.658813,228.860489 
	C393.405334,176.862671 363.371521,139.963150 314.516174,118.833382 
	C299.237946,112.225609 283.139984,108.170784 266.283478,107.949753 
	C263.480988,107.913002 260.685211,107.361092 257.451599,107.011703 
z"/>
<path fill="#8A9697" opacity="1.000000" stroke="none" 
	d="
M401.871033,147.787750 
	C401.313232,147.599228 400.624878,147.141739 399.941467,146.336792 
	C400.544464,146.499146 401.142487,147.008942 401.871033,147.787750 
z"/>
<path fill="#8A9697" opacity="1.000000" stroke="none" 
	d="
M143.947052,401.166504 
	C144.075455,401.161713 144.381424,401.372284 144.854919,401.805115 
	C144.723175,401.812195 144.423889,401.597046 143.947052,401.166504 
z"/>
<path fill="#8A9697" opacity="1.000000" stroke="none" 
	d="
M145.110413,402.259613 
	C145.243362,402.299164 145.512146,402.622986 145.900955,403.242554 
	C145.762726,403.206787 145.504471,402.875336 145.110413,402.259613 
z"/>
<path fill="#8A9697" opacity="1.000000" stroke="none" 
	d="
M399.880859,145.832764 
	C399.704865,145.875351 399.393768,145.700745 399.017883,145.252029 
	C399.217346,145.190460 399.481537,145.403015 399.880859,145.832764 
z"/>
<path fill="#8A9697" opacity="1.000000" stroke="none" 
	d="
M398.840729,144.820160 
	C398.689575,144.848389 398.350739,144.654114 397.844757,144.207596 
	C398.002777,144.169449 398.327881,144.383545 398.840729,144.820160 
z"/>
<path fill="#FDBA12" opacity="1.000000" stroke="none" 
	d="
M326.002228,225.834198 
	C329.973022,225.834198 333.943848,225.834198 338.399689,225.834198 
	C338.517487,228.339706 338.687988,230.284897 338.688721,232.230164 
	C338.704132,272.834381 338.593109,313.439270 338.831024,354.042084 
	C338.862000,359.331085 337.166138,360.339020 332.312927,360.295654 
	C307.519806,360.074188 282.723511,360.202881 257.460632,359.662750 
	C256.974670,349.461975 256.956421,339.807587 257.406219,330.089050 
	C261.534698,330.016632 265.220398,329.733459 268.849426,330.067078 
	C273.771606,330.519592 275.594208,328.907928 275.465637,323.703766 
	C275.128845,310.068329 275.352203,296.419006 275.352264,282.775238 
	C275.352295,278.335663 275.352264,273.896057 275.352264,268.846832 
	C268.837494,268.846832 262.887909,268.846832 256.946289,268.387817 
	C256.958527,254.011093 256.962799,240.093369 257.434723,226.111389 
	C267.944611,225.975800 277.986877,225.904434 288.274536,225.874924 
	C288.519928,225.916779 289.010834,225.833954 289.474548,225.901184 
	C301.627014,225.923782 313.315765,225.879166 325.253967,225.883606 
	C325.669678,225.899826 325.835938,225.867004 326.002228,225.834198 
z"/>
<path fill="#FFCE00" opacity="1.000000" stroke="none" 
	d="
M256.967102,226.175629 
	C256.962799,240.093369 256.958527,254.011093 256.985809,268.454742 
	C257.017395,268.980652 257.011108,269.135925 256.547852,269.073364 
	C250.356171,269.010834 244.627731,269.010834 239.144012,269.010834 
	C239.144012,289.786316 239.144012,309.762573 239.144012,329.864075 
	C245.432220,329.864075 251.221603,329.864075 257.014130,329.941711 
	C257.017273,330.019348 256.938171,330.153168 256.938171,330.153168 
	C256.956421,339.807587 256.974670,349.461975 256.996887,359.589417 
	C230.054260,360.062408 203.107712,360.062408 175.736115,360.062408 
	C175.736115,315.412628 175.736115,271.073944 175.736115,225.960297 
	C179.554352,225.960297 183.313431,225.960297 187.780533,225.950424 
	C188.654816,225.905502 188.821045,225.870468 189.452271,225.904236 
	C201.609543,225.926483 213.301819,225.879944 225.238327,225.878998 
	C225.482574,225.924591 225.971191,225.833099 226.437836,225.896744 
	C236.925369,226.032135 246.946228,226.103882 256.967102,226.175629 
z"/>
<path fill="#414952" opacity="1.000000" stroke="none" 
	d="
M257.513000,439.943085 
	C257.036346,430.279602 257.011261,420.643219 257.023804,410.545868 
	C305.313782,407.826843 345.513733,389.310608 375.813049,351.026031 
	C378.256378,347.938812 380.010773,347.664978 383.057739,350.026672 
	C389.475250,355.000763 396.129761,359.669037 403.276306,364.893646 
	C366.368408,413.145569 317.843994,437.471741 257.513000,439.943085 
z"/>
<path fill="#FFFFFF" opacity="1.000000" stroke="none" 
	d="
M224.994080,225.833405 
	C213.301819,225.879944 201.609543,225.926483 189.347382,225.744598 
	C188.626404,225.307693 188.445038,225.130173 188.233383,224.983582 
	C188.173691,212.350952 186.928970,199.586914 188.311981,187.114258 
	C190.842773,164.290421 202.683517,146.678207 222.518021,134.855484 
	C232.781738,128.737610 243.952408,125.462044 256.512146,126.573105 
	C256.966827,139.001816 256.966064,150.910217 256.535614,162.881439 
	C239.530685,162.568436 226.604050,176.129105 225.349243,190.203278 
	C224.323410,201.709137 225.203003,213.384903 225.151947,225.190186 
	C225.066055,225.395020 224.994080,225.833389 224.994080,225.833405 
z"/>
<path fill="#E9EDF5" opacity="1.000000" stroke="none" 
	d="
M256.965332,162.818634 
	C256.966064,150.910217 256.966827,139.001816 256.964600,126.636551 
	C280.668793,124.801292 306.702148,140.293900 317.621033,161.748978 
	C323.404572,173.113388 325.642059,185.119995 325.861572,197.639908 
	C326.015930,206.445908 325.864410,215.257263 325.661743,224.654282 
	C325.293732,225.420868 325.137238,225.618286 325.004517,225.834534 
	C313.315765,225.879166 301.627014,225.923782 289.433807,225.686157 
	C288.929352,225.403900 288.764954,224.998093 288.806152,224.531296 
	C288.861237,214.929626 288.917175,205.794601 288.880341,196.659927 
	C288.800323,176.827393 276.687347,164.007431 256.965332,162.818634 
z"/>
<path fill="#D6DCE3" opacity="1.000000" stroke="none" 
	d="
M325.253967,225.883606 
	C325.137238,225.618286 325.293732,225.420868 325.619080,225.121078 
	C325.764130,224.999832 325.924286,225.405289 325.963257,225.619751 
	C325.835938,225.867004 325.669678,225.899826 325.253967,225.883606 
z"/>
<path fill="#E7EAEA" opacity="1.000000" stroke="none" 
	d="
M188.147598,225.188934 
	C188.445038,225.130173 188.626404,225.307693 188.882385,225.675812 
	C188.821045,225.870468 188.654816,225.905502 188.239319,225.887070 
	C187.990082,225.833588 188.061813,225.394302 188.147598,225.188934 
z"/>
<path fill="#8A9697" opacity="1.000000" stroke="none" 
	d="
M256.535614,162.881439 
	C276.687347,164.007431 288.800323,176.827393 288.880341,196.659927 
	C288.917175,205.794601 288.861237,214.929626 288.665222,224.653320 
	C288.309692,225.422165 288.158386,225.619125 288.029144,225.833069 
	C277.986877,225.904434 267.944611,225.975800 257.434723,226.111389 
	C246.946228,226.103882 236.925369,226.032135 226.335571,225.738724 
	C225.620834,225.309540 225.444565,225.132294 225.237839,224.985336 
	C225.203003,213.384903 224.323410,201.709137 225.349243,190.203278 
	C226.604050,176.129105 239.530685,162.568436 256.535614,162.881439 
z"/>
<path fill="#23272B" opacity="1.000000" stroke="none" 
	d="
M256.977875,268.913757 
	C262.887909,268.846832 268.837494,268.846832 275.352264,268.846832 
	C275.352264,273.896057 275.352295,278.335663 275.352264,282.775238 
	C275.352203,296.419006 275.128845,310.068329 275.465637,323.703766 
	C275.594208,328.907928 273.771606,330.519592 268.849426,330.067078 
	C265.220398,329.733459 261.534698,330.016632 257.406189,330.089050 
	C256.938171,330.153168 257.017273,330.019348 256.992920,329.482330 
	C256.982758,309.008850 256.996918,289.072388 257.011108,269.135925 
	C257.011108,269.135925 257.017395,268.980652 256.977875,268.913757 
z"/>
<path fill="#9DA7A9" opacity="1.000000" stroke="none" 
	d="
M288.274536,225.874924 
	C288.158386,225.619125 288.309692,225.422165 288.624023,225.120117 
	C288.764954,224.998093 288.929352,225.403900 288.970093,225.618927 
	C289.010834,225.833954 288.519928,225.916779 288.274536,225.874924 
z"/>
<path fill="#414952" opacity="1.000000" stroke="none" 
	d="
M256.547852,269.073364 
	C256.996918,289.072388 256.982758,309.008850 256.989807,329.404694 
	C251.221603,329.864075 245.432220,329.864075 239.144012,329.864075 
	C239.144012,309.762573 239.144012,289.786316 239.144012,269.010834 
	C244.627731,269.010834 250.356171,269.010834 256.547852,269.073364 
z"/>
<path fill="#A1AAAB" opacity="1.000000" stroke="none" 
	d="
M225.151947,225.190186 
	C225.444565,225.132294 225.620834,225.309540 225.868927,225.675079 
	C225.971191,225.833099 225.482574,225.924591 225.238327,225.878998 
	C224.994080,225.833389 225.066055,225.395020 225.151947,225.190186 
z"/>
</svg>